<mxfile host="app.diagrams.net" modified="2023-11-01T07:55:05.499Z" agent="Mozilla/5.0 (Windows NT 10.0; Win64; x64) AppleWebKit/537.36 (KHTML, like Gecko) Chrome/118.0.0.0 Safari/537.36" etag="Y7d-H_cFAxoJDu_yguFz" version="22.0.8" type="github">
  <diagram name="Page-1" id="0erV1qYscNEWXXvKawN_">
    <mxGraphModel dx="1050" dy="549" grid="1" gridSize="10" guides="1" tooltips="1" connect="1" arrows="1" fold="1" page="1" pageScale="1" pageWidth="850" pageHeight="1100" math="0" shadow="0">
      <root>
        <mxCell id="0" />
        <mxCell id="1" parent="0" />
        <mxCell id="YTRCjxiTsRSQV4Z-Bp1G-3" style="edgeStyle=orthogonalEdgeStyle;rounded=0;orthogonalLoop=1;jettySize=auto;html=1;exitX=0.5;exitY=1;exitDx=0;exitDy=0;entryX=0.5;entryY=0;entryDx=0;entryDy=0;" edge="1" parent="1" source="YTRCjxiTsRSQV4Z-Bp1G-1" target="YTRCjxiTsRSQV4Z-Bp1G-2">
          <mxGeometry relative="1" as="geometry" />
        </mxCell>
        <mxCell id="YTRCjxiTsRSQV4Z-Bp1G-1" value="handle_connection" style="rounded=0;whiteSpace=wrap;html=1;" vertex="1" parent="1">
          <mxGeometry x="220" y="30" width="120" height="60" as="geometry" />
        </mxCell>
        <mxCell id="YTRCjxiTsRSQV4Z-Bp1G-4" style="edgeStyle=orthogonalEdgeStyle;rounded=0;orthogonalLoop=1;jettySize=auto;html=1;exitX=0.5;exitY=1;exitDx=0;exitDy=0;" edge="1" parent="1" source="YTRCjxiTsRSQV4Z-Bp1G-2" target="YTRCjxiTsRSQV4Z-Bp1G-5">
          <mxGeometry relative="1" as="geometry">
            <mxPoint x="280" y="220" as="targetPoint" />
          </mxGeometry>
        </mxCell>
        <mxCell id="YTRCjxiTsRSQV4Z-Bp1G-2" value="thd_prepare_connection" style="rounded=0;whiteSpace=wrap;html=1;" vertex="1" parent="1">
          <mxGeometry x="210" y="120" width="140" height="60" as="geometry" />
        </mxCell>
        <mxCell id="YTRCjxiTsRSQV4Z-Bp1G-7" style="edgeStyle=orthogonalEdgeStyle;rounded=0;orthogonalLoop=1;jettySize=auto;html=1;exitX=0.5;exitY=1;exitDx=0;exitDy=0;entryX=0.5;entryY=0;entryDx=0;entryDy=0;" edge="1" parent="1" source="YTRCjxiTsRSQV4Z-Bp1G-5" target="YTRCjxiTsRSQV4Z-Bp1G-6">
          <mxGeometry relative="1" as="geometry" />
        </mxCell>
        <mxCell id="YTRCjxiTsRSQV4Z-Bp1G-48" style="edgeStyle=orthogonalEdgeStyle;rounded=0;orthogonalLoop=1;jettySize=auto;html=1;exitX=0.5;exitY=1;exitDx=0;exitDy=0;entryX=0.5;entryY=0;entryDx=0;entryDy=0;" edge="1" parent="1" source="YTRCjxiTsRSQV4Z-Bp1G-5" target="YTRCjxiTsRSQV4Z-Bp1G-47">
          <mxGeometry relative="1" as="geometry" />
        </mxCell>
        <mxCell id="YTRCjxiTsRSQV4Z-Bp1G-5" value="login_connection" style="rounded=0;whiteSpace=wrap;html=1;" vertex="1" parent="1">
          <mxGeometry x="220" y="210" width="120" height="60" as="geometry" />
        </mxCell>
        <mxCell id="YTRCjxiTsRSQV4Z-Bp1G-9" style="edgeStyle=orthogonalEdgeStyle;rounded=0;orthogonalLoop=1;jettySize=auto;html=1;exitX=0.5;exitY=1;exitDx=0;exitDy=0;" edge="1" parent="1" source="YTRCjxiTsRSQV4Z-Bp1G-6" target="YTRCjxiTsRSQV4Z-Bp1G-8">
          <mxGeometry relative="1" as="geometry" />
        </mxCell>
        <mxCell id="YTRCjxiTsRSQV4Z-Bp1G-6" value="check_connection" style="rounded=0;whiteSpace=wrap;html=1;" vertex="1" parent="1">
          <mxGeometry x="220" y="300" width="120" height="60" as="geometry" />
        </mxCell>
        <mxCell id="YTRCjxiTsRSQV4Z-Bp1G-11" style="edgeStyle=orthogonalEdgeStyle;rounded=0;orthogonalLoop=1;jettySize=auto;html=1;exitX=0.5;exitY=1;exitDx=0;exitDy=0;entryX=0.5;entryY=0;entryDx=0;entryDy=0;" edge="1" parent="1" source="YTRCjxiTsRSQV4Z-Bp1G-8" target="YTRCjxiTsRSQV4Z-Bp1G-10">
          <mxGeometry relative="1" as="geometry" />
        </mxCell>
        <mxCell id="YTRCjxiTsRSQV4Z-Bp1G-8" value="acl_authenticate" style="rounded=0;whiteSpace=wrap;html=1;" vertex="1" parent="1">
          <mxGeometry x="220" y="390" width="120" height="60" as="geometry" />
        </mxCell>
        <mxCell id="YTRCjxiTsRSQV4Z-Bp1G-13" style="edgeStyle=orthogonalEdgeStyle;rounded=0;orthogonalLoop=1;jettySize=auto;html=1;exitX=0.5;exitY=1;exitDx=0;exitDy=0;" edge="1" parent="1" source="YTRCjxiTsRSQV4Z-Bp1G-10" target="YTRCjxiTsRSQV4Z-Bp1G-12">
          <mxGeometry relative="1" as="geometry" />
        </mxCell>
        <mxCell id="YTRCjxiTsRSQV4Z-Bp1G-10" value="do_auth_once" style="rounded=0;whiteSpace=wrap;html=1;" vertex="1" parent="1">
          <mxGeometry x="220" y="490" width="120" height="60" as="geometry" />
        </mxCell>
        <mxCell id="YTRCjxiTsRSQV4Z-Bp1G-15" style="edgeStyle=orthogonalEdgeStyle;rounded=0;orthogonalLoop=1;jettySize=auto;html=1;exitX=0.5;exitY=1;exitDx=0;exitDy=0;" edge="1" parent="1" source="YTRCjxiTsRSQV4Z-Bp1G-12" target="YTRCjxiTsRSQV4Z-Bp1G-14">
          <mxGeometry relative="1" as="geometry" />
        </mxCell>
        <mxCell id="YTRCjxiTsRSQV4Z-Bp1G-29" style="edgeStyle=orthogonalEdgeStyle;rounded=0;orthogonalLoop=1;jettySize=auto;html=1;exitX=0.5;exitY=1;exitDx=0;exitDy=0;" edge="1" parent="1" source="YTRCjxiTsRSQV4Z-Bp1G-12" target="YTRCjxiTsRSQV4Z-Bp1G-28">
          <mxGeometry relative="1" as="geometry" />
        </mxCell>
        <mxCell id="YTRCjxiTsRSQV4Z-Bp1G-12" value="native_password_authenticate" style="rounded=0;whiteSpace=wrap;html=1;" vertex="1" parent="1">
          <mxGeometry x="175" y="600" width="210" height="60" as="geometry" />
        </mxCell>
        <mxCell id="YTRCjxiTsRSQV4Z-Bp1G-17" style="edgeStyle=orthogonalEdgeStyle;rounded=0;orthogonalLoop=1;jettySize=auto;html=1;exitX=0.5;exitY=1;exitDx=0;exitDy=0;entryX=0.5;entryY=0;entryDx=0;entryDy=0;" edge="1" parent="1" source="YTRCjxiTsRSQV4Z-Bp1G-14" target="YTRCjxiTsRSQV4Z-Bp1G-16">
          <mxGeometry relative="1" as="geometry" />
        </mxCell>
        <mxCell id="YTRCjxiTsRSQV4Z-Bp1G-14" value="server_mpvio_write_packet" style="rounded=0;whiteSpace=wrap;html=1;" vertex="1" parent="1">
          <mxGeometry x="47.5" y="720" width="170" height="60" as="geometry" />
        </mxCell>
        <mxCell id="YTRCjxiTsRSQV4Z-Bp1G-19" style="edgeStyle=orthogonalEdgeStyle;rounded=0;orthogonalLoop=1;jettySize=auto;html=1;exitX=0.5;exitY=1;exitDx=0;exitDy=0;entryX=0.5;entryY=0;entryDx=0;entryDy=0;" edge="1" parent="1" source="YTRCjxiTsRSQV4Z-Bp1G-16" target="YTRCjxiTsRSQV4Z-Bp1G-18">
          <mxGeometry relative="1" as="geometry" />
        </mxCell>
        <mxCell id="YTRCjxiTsRSQV4Z-Bp1G-16" value="send_server_handshake_packet" style="rounded=0;whiteSpace=wrap;html=1;" vertex="1" parent="1">
          <mxGeometry x="30" y="820" width="205" height="60" as="geometry" />
        </mxCell>
        <mxCell id="YTRCjxiTsRSQV4Z-Bp1G-21" style="edgeStyle=orthogonalEdgeStyle;rounded=0;orthogonalLoop=1;jettySize=auto;html=1;exitX=0.5;exitY=1;exitDx=0;exitDy=0;" edge="1" parent="1" source="YTRCjxiTsRSQV4Z-Bp1G-18" target="YTRCjxiTsRSQV4Z-Bp1G-20">
          <mxGeometry relative="1" as="geometry" />
        </mxCell>
        <mxCell id="YTRCjxiTsRSQV4Z-Bp1G-18" value="Protocol_classic::flush_net" style="rounded=0;whiteSpace=wrap;html=1;" vertex="1" parent="1">
          <mxGeometry x="30" y="910" width="205" height="60" as="geometry" />
        </mxCell>
        <mxCell id="YTRCjxiTsRSQV4Z-Bp1G-23" style="edgeStyle=orthogonalEdgeStyle;rounded=0;orthogonalLoop=1;jettySize=auto;html=1;exitX=0.5;exitY=1;exitDx=0;exitDy=0;entryX=0.5;entryY=0;entryDx=0;entryDy=0;" edge="1" parent="1" source="YTRCjxiTsRSQV4Z-Bp1G-20" target="YTRCjxiTsRSQV4Z-Bp1G-22">
          <mxGeometry relative="1" as="geometry" />
        </mxCell>
        <mxCell id="YTRCjxiTsRSQV4Z-Bp1G-20" value="net_flush" style="rounded=0;whiteSpace=wrap;html=1;" vertex="1" parent="1">
          <mxGeometry x="30" y="1010" width="205" height="60" as="geometry" />
        </mxCell>
        <mxCell id="YTRCjxiTsRSQV4Z-Bp1G-25" style="edgeStyle=orthogonalEdgeStyle;rounded=0;orthogonalLoop=1;jettySize=auto;html=1;exitX=0.5;exitY=1;exitDx=0;exitDy=0;" edge="1" parent="1" source="YTRCjxiTsRSQV4Z-Bp1G-22" target="YTRCjxiTsRSQV4Z-Bp1G-24">
          <mxGeometry relative="1" as="geometry" />
        </mxCell>
        <mxCell id="YTRCjxiTsRSQV4Z-Bp1G-22" value="net_write_packet" style="rounded=0;whiteSpace=wrap;html=1;" vertex="1" parent="1">
          <mxGeometry x="30" y="1110" width="205" height="60" as="geometry" />
        </mxCell>
        <mxCell id="YTRCjxiTsRSQV4Z-Bp1G-27" style="edgeStyle=orthogonalEdgeStyle;rounded=0;orthogonalLoop=1;jettySize=auto;html=1;exitX=0.5;exitY=1;exitDx=0;exitDy=0;entryX=0.5;entryY=0;entryDx=0;entryDy=0;" edge="1" parent="1" source="YTRCjxiTsRSQV4Z-Bp1G-24" target="YTRCjxiTsRSQV4Z-Bp1G-26">
          <mxGeometry relative="1" as="geometry" />
        </mxCell>
        <mxCell id="YTRCjxiTsRSQV4Z-Bp1G-24" value="net_write_raw_loop" style="rounded=0;whiteSpace=wrap;html=1;" vertex="1" parent="1">
          <mxGeometry x="30" y="1220" width="205" height="60" as="geometry" />
        </mxCell>
        <mxCell id="YTRCjxiTsRSQV4Z-Bp1G-26" value="vio_write" style="rounded=0;whiteSpace=wrap;html=1;" vertex="1" parent="1">
          <mxGeometry x="30" y="1330" width="205" height="60" as="geometry" />
        </mxCell>
        <mxCell id="YTRCjxiTsRSQV4Z-Bp1G-31" style="edgeStyle=orthogonalEdgeStyle;rounded=0;orthogonalLoop=1;jettySize=auto;html=1;exitX=0.5;exitY=1;exitDx=0;exitDy=0;" edge="1" parent="1" source="YTRCjxiTsRSQV4Z-Bp1G-28" target="YTRCjxiTsRSQV4Z-Bp1G-30">
          <mxGeometry relative="1" as="geometry" />
        </mxCell>
        <mxCell id="YTRCjxiTsRSQV4Z-Bp1G-28" value="server_mpvio_read_packet" style="rounded=0;whiteSpace=wrap;html=1;" vertex="1" parent="1">
          <mxGeometry x="270" y="720" width="170" height="60" as="geometry" />
        </mxCell>
        <mxCell id="YTRCjxiTsRSQV4Z-Bp1G-33" style="edgeStyle=orthogonalEdgeStyle;rounded=0;orthogonalLoop=1;jettySize=auto;html=1;exitX=0.5;exitY=1;exitDx=0;exitDy=0;entryX=0.5;entryY=0;entryDx=0;entryDy=0;" edge="1" parent="1" source="YTRCjxiTsRSQV4Z-Bp1G-30" target="YTRCjxiTsRSQV4Z-Bp1G-32">
          <mxGeometry relative="1" as="geometry" />
        </mxCell>
        <mxCell id="YTRCjxiTsRSQV4Z-Bp1G-30" value="Protocol_classic::read_packet" style="rounded=0;whiteSpace=wrap;html=1;" vertex="1" parent="1">
          <mxGeometry x="252.5" y="820" width="205" height="60" as="geometry" />
        </mxCell>
        <mxCell id="YTRCjxiTsRSQV4Z-Bp1G-35" style="edgeStyle=orthogonalEdgeStyle;rounded=0;orthogonalLoop=1;jettySize=auto;html=1;exitX=0.5;exitY=1;exitDx=0;exitDy=0;" edge="1" parent="1" source="YTRCjxiTsRSQV4Z-Bp1G-32" target="YTRCjxiTsRSQV4Z-Bp1G-34">
          <mxGeometry relative="1" as="geometry" />
        </mxCell>
        <mxCell id="YTRCjxiTsRSQV4Z-Bp1G-32" value="my_net_read" style="rounded=0;whiteSpace=wrap;html=1;" vertex="1" parent="1">
          <mxGeometry x="252.5" y="910" width="205" height="60" as="geometry" />
        </mxCell>
        <mxCell id="YTRCjxiTsRSQV4Z-Bp1G-37" style="edgeStyle=orthogonalEdgeStyle;rounded=0;orthogonalLoop=1;jettySize=auto;html=1;exitX=0.5;exitY=1;exitDx=0;exitDy=0;entryX=0.5;entryY=0;entryDx=0;entryDy=0;" edge="1" parent="1" source="YTRCjxiTsRSQV4Z-Bp1G-34" target="YTRCjxiTsRSQV4Z-Bp1G-36">
          <mxGeometry relative="1" as="geometry" />
        </mxCell>
        <mxCell id="YTRCjxiTsRSQV4Z-Bp1G-46" style="edgeStyle=orthogonalEdgeStyle;rounded=0;orthogonalLoop=1;jettySize=auto;html=1;exitX=0.5;exitY=1;exitDx=0;exitDy=0;" edge="1" parent="1" source="YTRCjxiTsRSQV4Z-Bp1G-34" target="YTRCjxiTsRSQV4Z-Bp1G-43">
          <mxGeometry relative="1" as="geometry" />
        </mxCell>
        <mxCell id="YTRCjxiTsRSQV4Z-Bp1G-34" value="net_read_packet" style="rounded=0;whiteSpace=wrap;html=1;" vertex="1" parent="1">
          <mxGeometry x="252.5" y="1010" width="205" height="60" as="geometry" />
        </mxCell>
        <mxCell id="YTRCjxiTsRSQV4Z-Bp1G-39" style="edgeStyle=orthogonalEdgeStyle;rounded=0;orthogonalLoop=1;jettySize=auto;html=1;exitX=0.5;exitY=1;exitDx=0;exitDy=0;" edge="1" parent="1" source="YTRCjxiTsRSQV4Z-Bp1G-36" target="YTRCjxiTsRSQV4Z-Bp1G-38">
          <mxGeometry relative="1" as="geometry" />
        </mxCell>
        <mxCell id="YTRCjxiTsRSQV4Z-Bp1G-36" value="net_read_packet_header" style="rounded=0;whiteSpace=wrap;html=1;" vertex="1" parent="1">
          <mxGeometry x="252.5" y="1110" width="205" height="60" as="geometry" />
        </mxCell>
        <mxCell id="YTRCjxiTsRSQV4Z-Bp1G-41" style="edgeStyle=orthogonalEdgeStyle;rounded=0;orthogonalLoop=1;jettySize=auto;html=1;exitX=0.5;exitY=1;exitDx=0;exitDy=0;entryX=0.5;entryY=0;entryDx=0;entryDy=0;" edge="1" parent="1" source="YTRCjxiTsRSQV4Z-Bp1G-38" target="YTRCjxiTsRSQV4Z-Bp1G-40">
          <mxGeometry relative="1" as="geometry" />
        </mxCell>
        <mxCell id="YTRCjxiTsRSQV4Z-Bp1G-38" value="net_read_raw_loop" style="rounded=0;whiteSpace=wrap;html=1;" vertex="1" parent="1">
          <mxGeometry x="252.5" y="1230" width="205" height="60" as="geometry" />
        </mxCell>
        <mxCell id="YTRCjxiTsRSQV4Z-Bp1G-40" value="vio_read" style="rounded=0;whiteSpace=wrap;html=1;" vertex="1" parent="1">
          <mxGeometry x="252.5" y="1330" width="205" height="60" as="geometry" />
        </mxCell>
        <mxCell id="YTRCjxiTsRSQV4Z-Bp1G-45" style="edgeStyle=orthogonalEdgeStyle;rounded=0;orthogonalLoop=1;jettySize=auto;html=1;exitX=0.5;exitY=1;exitDx=0;exitDy=0;" edge="1" parent="1" source="YTRCjxiTsRSQV4Z-Bp1G-43" target="YTRCjxiTsRSQV4Z-Bp1G-44">
          <mxGeometry relative="1" as="geometry" />
        </mxCell>
        <mxCell id="YTRCjxiTsRSQV4Z-Bp1G-43" value="net_read_raw_loop" style="rounded=0;whiteSpace=wrap;html=1;" vertex="1" parent="1">
          <mxGeometry x="480" y="1110" width="205" height="60" as="geometry" />
        </mxCell>
        <mxCell id="YTRCjxiTsRSQV4Z-Bp1G-44" value="vio_read" style="rounded=0;whiteSpace=wrap;html=1;" vertex="1" parent="1">
          <mxGeometry x="480" y="1210" width="205" height="60" as="geometry" />
        </mxCell>
        <mxCell id="YTRCjxiTsRSQV4Z-Bp1G-50" style="edgeStyle=orthogonalEdgeStyle;rounded=0;orthogonalLoop=1;jettySize=auto;html=1;exitX=0.5;exitY=1;exitDx=0;exitDy=0;entryX=0.5;entryY=0;entryDx=0;entryDy=0;" edge="1" parent="1" source="YTRCjxiTsRSQV4Z-Bp1G-47" target="YTRCjxiTsRSQV4Z-Bp1G-49">
          <mxGeometry relative="1" as="geometry" />
        </mxCell>
        <mxCell id="YTRCjxiTsRSQV4Z-Bp1G-47" value="THD::send_statement_status" style="rounded=0;whiteSpace=wrap;html=1;" vertex="1" parent="1">
          <mxGeometry x="730" y="310" width="210" height="60" as="geometry" />
        </mxCell>
        <mxCell id="YTRCjxiTsRSQV4Z-Bp1G-52" style="edgeStyle=orthogonalEdgeStyle;rounded=0;orthogonalLoop=1;jettySize=auto;html=1;exitX=0.5;exitY=1;exitDx=0;exitDy=0;" edge="1" parent="1" source="YTRCjxiTsRSQV4Z-Bp1G-49" target="YTRCjxiTsRSQV4Z-Bp1G-51">
          <mxGeometry relative="1" as="geometry" />
        </mxCell>
        <mxCell id="YTRCjxiTsRSQV4Z-Bp1G-49" value="Protocol_classic::send_ok" style="rounded=0;whiteSpace=wrap;html=1;" vertex="1" parent="1">
          <mxGeometry x="732.5" y="420" width="205" height="60" as="geometry" />
        </mxCell>
        <mxCell id="YTRCjxiTsRSQV4Z-Bp1G-54" style="edgeStyle=orthogonalEdgeStyle;rounded=0;orthogonalLoop=1;jettySize=auto;html=1;exitX=0.5;exitY=1;exitDx=0;exitDy=0;entryX=0.5;entryY=0;entryDx=0;entryDy=0;" edge="1" parent="1" source="YTRCjxiTsRSQV4Z-Bp1G-51" target="YTRCjxiTsRSQV4Z-Bp1G-53">
          <mxGeometry relative="1" as="geometry" />
        </mxCell>
        <mxCell id="YTRCjxiTsRSQV4Z-Bp1G-51" value="net_send_ok" style="rounded=0;whiteSpace=wrap;html=1;" vertex="1" parent="1">
          <mxGeometry x="775" y="510" width="120" height="60" as="geometry" />
        </mxCell>
        <mxCell id="YTRCjxiTsRSQV4Z-Bp1G-53" value="net_flush" style="rounded=0;whiteSpace=wrap;html=1;" vertex="1" parent="1">
          <mxGeometry x="775" y="610" width="120" height="60" as="geometry" />
        </mxCell>
      </root>
    </mxGraphModel>
  </diagram>
</mxfile>
